<svg class="logo-black" id="aleia-logo" data-name="Layer 1" xmlns="http://www.w3.org/2000/svg" viewBox="0 0 1882 545.56">
          <polygon points="299.38 0 506.93 545.56 358.68 545.56 168.92 0 299.38 0"></polygon>
          <circle cx="52.18" cy="493.38" r="52.18"></circle>
          <rect x="1516" y="291.06" width="42.24" height="253.46"></rect>
          <rect x="1038.45" y="291.06" width="42.24" height="253.46"></rect>
          <rect x="1118.45" y="479.99" width="36.24" height="146.23" transform="translate(558.46 1662.98) rotate(-90)"></rect>
          <rect x="1357" y="479.99" width="36.24" height="146.23" transform="translate(797.01 1901.53) rotate(-90)"></rect>
          <rect x="1357" y="371.9" width="36.24" height="146.23" transform="translate(905.11 1793.43) rotate(-90)"></rect>
          <rect x="1357" y="263.8" width="36.24" height="146.23" transform="translate(1013.2 1685.34) rotate(-90)"></rect>
          <path d="M968.51,571.23H924.34l-20.2-45.07L855.87,418,807.6,526.15l-20.2,45.07H743.22l20.2-45.07,92.44-207.33,92.46,207.33Z" transform="translate(-25 -26.7)"></path>
          <path d="M1907,571.23h-44.17l-20.2-45.07L1794.36,418l-48.26,108.17-20.2,45.07h-44.18l20.2-45.07,92.44-207.33,92.46,207.33Z" transform="translate(-25 -26.7)"></path>
        </svg>